HIERARCHY
ROOT Bip001_Pelvis
{
  OFFSET -1.81647 95.4634 -9.87528
  CHANNELS 6 Xposition Yposition Zposition Zrotation Xrotation Yrotation
  JOINT Bip001_Spine
  {
    OFFSET 1.44608e-005 10.4157 -0.0118244
    CHANNELS 3 Zrotation Xrotation Yrotation
    JOINT Bip001_L_Thigh
    {
      OFFSET 11.2582 -10.4157 0.0118432
      CHANNELS 3 Zrotation Xrotation Yrotation
      JOINT Bip001_L_Calf
      {
        OFFSET -0.720717 -44.8687 0.366937
        CHANNELS 3 Zrotation Xrotation Yrotation
        JOINT Bip001_L_Foot
        {
          OFFSET -0.664439 -41.3745 -3.62995
          CHANNELS 3 Zrotation Xrotation Yrotation
          JOINT Bip001_L_Toe0
          {
            OFFSET 0.0541047 -10.4146 13.4033
            CHANNELS 3 Zrotation Xrotation Yrotation
            End Site
            {
              OFFSET -1.04503e-005 0 7.70137
            }
          }
        }
      }
    }
    JOINT Bip001_R_Thigh
    {
      OFFSET -11.2582 -10.4156 0.0118122
      CHANNELS 3 Zrotation Xrotation Yrotation
      JOINT Bip001_R_Calf
      {
        OFFSET 0.72059 -44.8687 0.36676
        CHANNELS 3 Zrotation Xrotation Yrotation
        JOINT Bip001_R_Foot
        {
          OFFSET 0.664321 -41.3745 -3.62979
          CHANNELS 3 Zrotation Xrotation Yrotation
          JOINT Bip001_R_Toe0
          {
            OFFSET -0.05417 -10.4146 13.4033
            CHANNELS 3 Zrotation Xrotation Yrotation
            End Site
            {
              OFFSET -1.04873e-005 0 7.70137
            }
          }
        }
      }
    }
    JOINT Bip001_Spine1
    {
      OFFSET 1.90638e-005 14.8539 1.10727
      CHANNELS 3 Zrotation Xrotation Yrotation
      JOINT Bip001_Spine2
      {
        OFFSET 2.28934e-005 14.7848 -1.7233
        CHANNELS 3 Zrotation Xrotation Yrotation
        JOINT Bip001_Neck
        {
          OFFSET 2.24514e-005 15.6905 -0.498826
          CHANNELS 3 Zrotation Xrotation Yrotation
          JOINT Bip001_L_Clavicle
          {
            OFFSET 6.17691 -0.000591152 0.00852867
            CHANNELS 3 Zrotation Xrotation Yrotation
            JOINT Bip001_L_UpperArm
            {
              OFFSET 11.773 -0.0611878 0.00197697
              CHANNELS 3 Zrotation Xrotation Yrotation
              JOINT Bip001_L_Forearm
              {
                OFFSET 26.4514 0.0817568 -2.19579
                CHANNELS 3 Zrotation Xrotation Yrotation
                JOINT Bip001_L_Hand
                {
                  OFFSET 32.8677 0.156744 1.67112
                  CHANNELS 3 Zrotation Xrotation Yrotation
                  JOINT Bip001_L_Finger0
                  {
                    OFFSET 6.16267 -2.25226 6.01674
                    CHANNELS 3 Zrotation Xrotation Yrotation
                    End Site
                    {
                      OFFSET 4.30498 -1.46663 0.618148
                    }
                  }
                  JOINT Bip001_L_Finger1
                  {
                    OFFSET 11.2957 -0.718374 -0.201963
                    CHANNELS 3 Zrotation Xrotation Yrotation
                    End Site
                    {
                      OFFSET 6.31952 -0.405163 -0.0802303
                    }
                  }
                }
              }
            }
          }
          JOINT Bip001_R_Clavicle
          {
            OFFSET -6.17691 -0.000574027 0.00851165
            CHANNELS 3 Zrotation Xrotation Yrotation
            JOINT Bip001_R_UpperArm
            {
              OFFSET -11.773 -0.0611516 0.00194365
              CHANNELS 3 Zrotation Xrotation Yrotation
              JOINT Bip001_R_Forearm
              {
                OFFSET -26.4514 0.0822336 -2.19736
                CHANNELS 3 Zrotation Xrotation Yrotation
                JOINT Bip001_R_Hand
                {
                  OFFSET -32.8677 0.156816 1.67144
                  CHANNELS 3 Zrotation Xrotation Yrotation
                  JOINT Bip001_R_Finger0
                  {
                    OFFSET -6.16269 -2.25224 6.01673
                    CHANNELS 3 Zrotation Xrotation Yrotation
                    End Site
                    {
                      OFFSET -4.30499 -1.46661 0.618137
                    }
                  }
                  JOINT Bip001_R_Finger1
                  {
                    OFFSET -11.2957 -0.718342 -0.201995
                    CHANNELS 3 Zrotation Xrotation Yrotation
                    End Site
                    {
                      OFFSET -6.31952 -0.405145 -0.0802479
                    }
                  }
                }
              }
            }
          }
          JOINT Bip001_Head
          {
            OFFSET 1.11782e-005 11.4912 2.09908
            CHANNELS 3 Zrotation Xrotation Yrotation
            End Site
            {
              OFFSET 2.95144e-005 21.2823 -2.83069e-005
            }
          }
        }
      }
    }
  }
}
MOTION
Frames:	6
Frame Time:	0.0333333
-1.79896 95.4645 -9.78363 -0.0907207 -6.55763 1.7855 -0.545273 3.00625 0.583643 0.363016 -2.91005 -8.1524 -0.0173012 11.4786 -0.163511 0.848077 -5.07031 5.18262 -8.65799e-017 0 1.98784e-016 0.390993 -4.70464 3.63986 0.00769529 10.5578 0.16175 -1.54419 -2.67197 -7.31025 4.27433e-007 1.55064e-007 4.27948e-007 -0.294263 5.99417 1.07362 -0.29078 5.99487 1.07096 3.53011 6.16685 -2.80507 -31.7849 -3.17803 -7.60263 -42.2814 47.3898 -9.41211 -2.39486 0.601851 -24.5582 3.71069 14.8572 3.18467 1.59028e-015 -3.18055e-015 -0 8.82782e-032 -3.18056e-015 1.59028e-015 21.5095 -4.66533 1.57487 48.7269 46.9039 10.2699 1.72264 0.321105 17.2351 -6.14247 -4.82423 -5.60487 1.59028e-015 0 -0 -0 0 7.95139e-016 0.217235 -12.1639 -1.60717 
-1.7973 95.465 -9.77908 -0.0907207 -6.55763 1.7855 -0.545445 3.00625 0.58691 0.363283 -2.91009 -8.14714 -0.0173177 11.4729 -0.163508 0.848077 -5.07031 5.18262 -2.55469e-016 -4.96963e-017 1.98784e-016 0.390724 -4.70466 3.63658 0.00769529 10.5578 0.16175 -1.54419 -2.67197 -7.31025 4.27433e-007 1.55064e-007 4.27948e-007 -0.295003 5.99415 1.08071 -0.291505 5.99485 1.07791 3.5375 6.14814 -2.80885 -31.8011 -3.1719 -7.58157 -42.2904 47.2966 -9.40401 -2.3943 0.602127 -24.5927 3.68431 14.9409 3.19315 1.59028e-015 -6.36111e-015 -0 3.18055e-015 -6.36111e-015 -0 21.5046 -4.64364 1.57482 48.7498 46.9368 10.2336 1.72252 0.321065 17.2582 -6.18874 -4.86011 -5.60516 -7.95139e-016 -3.18055e-015 -7.95139e-016 -7.95139e-016 3.18056e-015 -0 0.21278 -12.1405 -1.63822 
-1.79559 95.4653 -9.77458 -0.0919803 -6.55767 1.77447 -0.545788 3.00625 0.593455 0.365206 -2.89913 -8.14023 -0.01735 11.4618 -0.163502 0.848077 -5.07031 5.18262 -2.19362e-016 -2.48481e-017 3.97569e-016 0.390185 -4.70469 3.63001 0.00769529 10.5578 0.16175 -1.54442 -2.67197 -7.31025 4.27433e-007 1.55064e-007 4.27948e-007 -0.296479 5.99413 1.09484 -0.292978 5.99483 1.09201 3.55464 6.13127 -2.82428 -31.818 -3.16577 -7.56138 -42.2868 47.2025 -9.4036 -2.39336 0.603215 -24.627 3.65698 15.0253 3.20436 -1.59028e-015 3.18055e-015 -3.97569e-015 -3.18055e-015 0 -1.59028e-015 21.487 -4.62347 1.57844 48.7739 46.9682 10.1961 1.72239 0.321025 17.2809 -6.23498 -4.89358 -5.60388 7.95139e-016 -9.54166e-015 -7.95139e-016 -1.32417e-031 -9.54167e-015 -7.95139e-016 0.212803 -12.1146 -1.6715 
-1.79388 95.4656 -9.77009 -0.09325 -6.5577 1.76335 -0.546129 3.00625 0.599963 0.367074 -2.88866 -8.13299 -0.0173811 11.4511 -0.163495 0.848077 -5.07031 5.18262 -2.60128e-016 0 9.93921e-017 0.387951 -4.70473 3.62356 0.00769529 10.5578 0.16175 -1.54516 -2.67197 -7.31025 4.27433e-007 1.55064e-007 4.27948e-007 -0.297959 5.9941 1.10902 -0.29445 5.9948 1.10611 3.5722 6.11464 -2.83971 -31.8352 -3.15932 -7.53944 -42.2838 47.1082 -9.40278 -2.39253 0.604083 -24.6611 3.62949 15.1099 3.21569 1.59028e-015 -3.18055e-015 -0 -0 0 7.95139e-016 21.4694 -4.60415 1.58523 48.7986 46.9991 10.1577 1.72226 0.320986 17.3034 -6.28086 -4.9261 -5.5978 -7.95139e-016 3.18055e-015 -7.95139e-016 -7.95139e-016 3.18056e-015 -0 0.211586 -12.0717 -1.71402 
-1.79217 95.466 -9.76559 -0.0945137 -6.55774 1.75229 -0.546472 3.00624 0.606503 0.366903 -2.87791 -8.12576 -0.0174138 11.4399 -0.163489 0.848077 -5.07031 5.18262 1.2657e-016 4.96963e-017 3.97569e-016 0.383815 -4.70476 3.61711 0.00769529 10.5578 0.16175 -1.54585 -2.67197 -7.31025 4.27433e-007 1.55064e-007 4.27948e-007 -0.299441 5.99407 1.12321 -0.295896 5.99477 1.11995 3.58946 6.09759 -2.85512 -31.8524 -3.15277 -7.51558 -42.2804 47.014 -9.40225 -2.39278 0.604808 -24.6954 3.60204 15.1944 3.22695 1.59028e-015 0 -3.18055e-015 0 0 -2.38542e-015 21.4519 -4.58413 1.59199 48.8233 47.0303 10.1194 1.72214 0.320947 17.326 -6.32666 -4.95915 -5.59165 7.95139e-016 -6.36111e-015 -0 -0 -6.36111e-015 -0 0.222776 -12.0124 -1.76189 
-1.79048 95.4662 -9.76106 -0.0957581 -6.55778 1.74139 -0.546826 3.00624 0.613253 0.36601 -2.86723 -8.11865 -0.0174449 11.4292 -0.163483 0.847747 -5.06669 5.18259 -7.45829e-016 -2.48481e-017 2.98176e-016 0.379989 -4.7048 3.61039 0.00769529 10.5578 0.16175 -1.54642 -2.67198 -7.30873 4.27433e-007 1.55064e-007 4.27948e-007 -0.300921 5.99404 1.13738 -0.297346 5.99474 1.13383 3.60611 6.07992 -2.87047 -31.8689 -3.14551 -7.49135 -42.276 46.9199 -9.40259 -2.39369 0.605465 -24.7297 3.57474 15.2783 3.238 1.59028e-015 0 -3.18055e-015 3.18055e-015 3.18056e-015 -3.18055e-015 21.435 -4.56351 1.59852 48.8469 47.0626 10.0825 1.72201 0.320907 17.3489 -6.37255 -4.99412 -5.58635 7.95139e-016 0 7.95139e-016 7.95139e-016 -6.36111e-015 7.95139e-016 0.249168 -11.9479 -1.81341 
